<svg xmlns="http://www.w3.org/2000/svg" version="1.1" xmlns:xlink="http://www.w3.org/1999/xlink" xmlns:svgjs="http://svgjs.dev/svgjs" width="2000" height="555" viewBox="0 0 2000 555"><g transform="matrix(1,0,0,1,-1.2121212121212466,0.9527202506505432)"><svg viewBox="0 0 396 110" data-background-color="#ffffff" preserveAspectRatio="xMidYMid meet" height="555" width="2000" xmlns="http://www.w3.org/2000/svg" xmlns:xlink="http://www.w3.org/1999/xlink"><g id="tight-bounds" transform="matrix(1,0,0,1,0.2400000000000091,-0.1888274370658678)"><svg viewBox="0 0 395.52 110.37765487413176" height="110.37765487413176" width="395.52"><g><svg viewBox="0 0 575.8216141795635 160.6943755030778" height="110.37765487413176" width="395.52"><g transform="matrix(1,0,0,1,180.30161417956356,38.81980106994964)"><svg viewBox="0 0 395.52 83.05477336317851" height="83.05477336317851" width="395.52"><g id="textblocktransform"><svg viewBox="0 0 395.52 83.05477336317851" height="83.05477336317851" width="395.52" id="textblock"><g><svg viewBox="0 0 395.52 83.05477336317851" height="83.05477336317851" width="395.52"><g transform="matrix(1,0,0,1,0,0)"><svg width="395.52" viewBox="3.65 -37.15 179.51 37.53" height="83.05477336317851" data-palette-color="#ec9131"><g class="wordmark-text-0" data-fill-palette-color="primary" id="text-0"><path d="M21.8-15L21.8-15Q22.23-14.2 22.59-13.34 22.95-12.48 23.3-11.6L23.3-11.6Q23.65-12.5 24.03-13.38 24.4-14.25 24.83-15.05L24.83-15.05 35.52-35.08Q35.73-35.45 35.94-35.68 36.15-35.9 36.41-36 36.68-36.1 37-36.13 37.33-36.15 37.77-36.15L37.77-36.15 42.85-36.15 42.85 0 36.93 0 36.93-23.35Q36.93-24 36.96-24.78 37-25.55 37.08-26.35L37.08-26.35 26.15-5.85Q25.78-5.15 25.18-4.76 24.58-4.38 23.78-4.38L23.78-4.38 22.85-4.38Q22.05-4.38 21.45-4.76 20.85-5.15 20.48-5.85L20.48-5.85 9.4-26.43Q9.5-25.6 9.54-24.81 9.58-24.03 9.58-23.35L9.58-23.35 9.58 0 3.65 0 3.65-36.15 8.72-36.15Q9.18-36.15 9.5-36.13 9.83-36.1 10.09-36 10.35-35.9 10.58-35.68 10.8-35.45 11-35.08L11-35.08 21.8-15ZM60.75-26.05L60.75-26.05Q63.62-26.05 65.96-25.13 68.3-24.2 69.95-22.5 71.6-20.8 72.5-18.35 73.4-15.9 73.4-12.88L73.4-12.88Q73.4-9.83 72.5-7.38 71.6-4.93 69.95-3.2 68.3-1.48 65.96-0.55 63.62 0.38 60.75 0.38L60.75 0.38Q57.87 0.38 55.52-0.55 53.17-1.48 51.51-3.2 49.85-4.93 48.94-7.38 48.02-9.83 48.02-12.88L48.02-12.88Q48.02-15.9 48.94-18.35 49.85-20.8 51.51-22.5 53.17-24.2 55.52-25.13 57.87-26.05 60.75-26.05ZM60.75-4.38L60.75-4.38Q63.95-4.38 65.48-6.53 67.02-8.68 67.02-12.83L67.02-12.83Q67.02-16.98 65.48-19.15 63.95-21.33 60.75-21.33L60.75-21.33Q57.5-21.33 55.95-19.14 54.4-16.95 54.4-12.83L54.4-12.83Q54.4-8.7 55.95-6.54 57.5-4.38 60.75-4.38ZM101.25-25.65L91.07 0 85.47 0 75.27-25.65 80.39-25.65Q81.07-25.65 81.53-25.33 82-25 82.17-24.5L82.17-24.5 87.12-10.8Q87.55-9.6 87.83-8.45 88.12-7.3 88.34-6.15L88.34-6.15Q88.57-7.3 88.86-8.45 89.15-9.6 89.59-10.8L89.59-10.8 94.67-24.5Q94.84-25 95.3-25.33 95.75-25.65 96.37-25.65L96.37-25.65 101.25-25.65ZM105.24-36.15L128.04-36.15 128.04-30.8 112.02-30.8 112.02-20.1 125.54-20.1 125.54-14.73 112.02-14.73 112.02 0 105.24 0 105.24-36.15ZM133.37-37.15L139.54-37.15 139.54 0 133.37 0 133.37-37.15ZM146.91-25.65L153.09-25.65 153.09 0 146.91 0 146.91-25.65ZM154.01-33.13L154.01-33.13Q154.01-32.33 153.69-31.63 153.36-30.93 152.83-30.4 152.29-29.88 151.56-29.56 150.84-29.25 150.01-29.25L150.01-29.25Q149.21-29.25 148.5-29.56 147.79-29.88 147.26-30.4 146.74-30.93 146.43-31.63 146.11-32.33 146.11-33.13L146.11-33.13Q146.11-33.95 146.43-34.68 146.74-35.4 147.26-35.93 147.79-36.45 148.5-36.76 149.21-37.08 150.01-37.08L150.01-37.08Q150.84-37.08 151.56-36.76 152.29-36.45 152.83-35.93 153.36-35.4 153.69-34.68 154.01-33.95 154.01-33.13ZM157.36 0L166.14-13.23 157.71-25.65 163.66-25.65Q164.34-25.65 164.66-25.46 164.99-25.28 165.24-24.85L165.24-24.85 170.61-16.28Q170.74-16.7 170.92-17.13 171.11-17.55 171.39-17.98L171.39-17.98 175.71-24.73Q176.01-25.2 176.34-25.43 176.66-25.65 177.14-25.65L177.14-25.65 182.81-25.65 174.36-13.5 183.16 0 177.21 0Q176.54 0 176.12-0.35 175.71-0.7 175.44-1.15L175.44-1.15 169.99-10.08Q169.76-9.18 169.36-8.58L169.36-8.58 164.56-1.15Q164.29-0.73 163.89-0.36 163.49 0 162.89 0L162.89 0 157.36 0Z" fill="#ec9131" data-fill-palette-color="primary"></path></g></svg></g></svg></g></svg></g></svg></g><g><svg viewBox="0 0 160.69437550307782 160.6943755030778" height="160.6943755030778" width="160.69437550307782"><g><svg></svg></g><g id="icon-0"><svg viewBox="0 0 160.69437550307782 160.6943755030778" height="160.6943755030778" width="160.69437550307782"><g><path transform="scale(1.60694,1.60694)" d="M30 100c-16.569 0-30-13.431-30-30v-40c0-16.569 13.431-30 30-30h40c16.569 0 30 13.431 30 30v40c0 16.569-13.431 30-30 30z" fill="#185c6a" fill-rule="nonzero" stroke="none" stroke-width="1" stroke-linecap="butt" stroke-linejoin="miter" stroke-miterlimit="10" stroke-dasharray="" stroke-dashoffset="0" font-family="none" font-weight="none" font-size="none" text-anchor="none" style="mix-blend-mode: normal" data-fill-palette-color="accent"></path></g><g transform="matrix(1,0,0,1,32.13887510061557,42.56226813343898)"><svg viewBox="0 0 96.41662530184668 75.56983923619984" height="75.56983923619984" width="96.41662530184668"><g><svg xmlns="http://www.w3.org/2000/svg" xmlns:xlink="http://www.w3.org/1999/xlink" version="1.1" x="0" y="0" viewBox="0 0 99.63200062247249 78.09" enable-background="new 0 0 99.633 78.09" xml:space="preserve" width="96.41662530184668" height="75.56983923619984" class="icon-cg-0" data-fill-palette-color="quaternary" id="cg-0"><g fill="#ffffff" data-fill-palette-color="quaternary"><path d="M96.941 0H2.693C1.205 0 0 1.206 0 2.693v56.548c0 1.489 1.205 2.694 2.693 2.694h43.085v10.771h-8.079c-1.488 0-2.693 1.204-2.693 2.692 0 1.485 1.205 2.692 2.693 2.692h21.542c1.488 0 2.692-1.207 2.692-2.692 0-1.488-1.204-2.692-2.692-2.692h-8.078V61.935h45.777c1.488 0 2.692-1.205 2.692-2.694V2.693C99.633 1.206 98.429 0 96.941 0zM94.248 56.548H5.386V5.385h88.861V56.548z" fill="#ffffff" data-fill-palette-color="quaternary"></path><path d="M43.264 41.276c0.063 0.177 0.155 0.33 0.25 0.488 0.063 0.101 0.084 0.217 0.16 0.311 0.029 0.037 0.074 0.048 0.105 0.082 0.19 0.212 0.413 0.376 0.66 0.521 0.084 0.05 0.153 0.123 0.24 0.163 0.336 0.15 0.705 0.244 1.099 0.244l0 0c0.002 0 0.002 0 0.002 0 0.327 0 0.65-0.073 0.963-0.194 0.116-0.045 0.213-0.116 0.321-0.176 0.131-0.074 0.273-0.121 0.396-0.219l10.771-8.619c0.092-0.074 0.14-0.177 0.219-0.26 0.06-0.064 0.145-0.09 0.202-0.161 0.052-0.066 0.065-0.146 0.11-0.214 0.103-0.154 0.179-0.311 0.247-0.48 0.063-0.159 0.118-0.314 0.149-0.48 0.032-0.17 0.04-0.333 0.043-0.507-0.003-0.173-0.011-0.336-0.043-0.507-0.031-0.166-0.086-0.321-0.149-0.48-0.068-0.169-0.145-0.326-0.247-0.479-0.045-0.069-0.059-0.149-0.11-0.215-0.066-0.08-0.158-0.119-0.229-0.19-0.07-0.072-0.109-0.166-0.191-0.23L47.46 21.054c-0.095-0.074-0.208-0.097-0.308-0.157-0.161-0.099-0.313-0.192-0.494-0.256-0.177-0.062-0.353-0.083-0.537-0.107-0.118-0.016-0.221-0.07-0.344-0.07-0.053 0-0.095 0.026-0.147 0.031-0.182 0.009-0.352 0.059-0.529 0.106-0.168 0.044-0.333 0.078-0.486 0.153-0.143 0.066-0.261 0.168-0.39 0.26-0.158 0.114-0.311 0.222-0.439 0.368-0.034 0.037-0.082 0.054-0.113 0.093-0.076 0.095-0.097 0.209-0.16 0.311-0.095 0.158-0.187 0.31-0.25 0.487-0.063 0.181-0.086 0.361-0.11 0.548-0.016 0.114-0.068 0.217-0.068 0.336v17.235c0 0.119 0.053 0.223 0.068 0.337C43.177 40.915 43.201 41.095 43.264 41.276zM48.47 28.761l3.769 3.014-3.769 3.014V28.761z" fill="#ffffff" data-fill-palette-color="quaternary"></path></g></svg></g></svg></g></svg></g></svg></g></svg></g><defs></defs></svg><rect width="395.52" height="110.37765487413176" fill="none" stroke="none" visibility="hidden"></rect></g></svg></g></svg>